<svg width="25" height="25" viewBox="0 0 25 25" fill="none" xmlns="http://www.w3.org/2000/svg">
<path d="M12.9658 18.7998C10.9658 18.7998 9.15332 18.2081 7.52832 17.0248C5.90332 15.8415 4.71582 14.2665 3.96582 12.2998C4.71582 10.3331 5.90332 8.75814 7.52832 7.5748C9.15332 6.39147 10.9658 5.7998 12.9658 5.7998C14.9658 5.7998 16.7783 6.39147 18.4033 7.5748C20.0283 8.75814 21.2158 10.3331 21.9658 12.2998C21.2158 14.2665 20.0283 15.8415 18.4033 17.0248C16.7783 18.2081 14.9658 18.7998 12.9658 18.7998ZM12.9658 16.7998C14.4325 16.7998 15.7742 16.3998 16.9908 15.5998C18.2075 14.7998 19.1408 13.6998 19.7908 12.2998C19.1408 10.8998 18.2075 9.79981 16.9908 8.9998C15.7742 8.19981 14.4325 7.7998 12.9658 7.7998C11.4992 7.7998 10.1575 8.19981 8.94082 8.9998C7.72415 9.79981 6.79082 10.8998 6.14082 12.2998C6.79082 13.6998 7.72415 14.7998 8.94082 15.5998C10.1575 16.3998 11.4992 16.7998 12.9658 16.7998ZM12.9658 15.7998C13.9325 15.7998 14.7575 15.4581 15.4408 14.7748C16.1242 14.0915 16.4658 13.2665 16.4658 12.2998C16.4658 11.3331 16.1242 10.5081 15.4408 9.82481C14.7575 9.14147 13.9325 8.7998 12.9658 8.7998C11.9992 8.7998 11.1742 9.14147 10.4908 9.82481C9.80749 10.5081 9.46582 11.3331 9.46582 12.2998C9.46582 13.2665 9.80749 14.0915 10.4908 14.7748C11.1742 15.4581 11.9992 15.7998 12.9658 15.7998ZM12.9658 13.7998C12.5492 13.7998 12.195 13.654 11.9033 13.3623C11.6117 13.0706 11.4658 12.7165 11.4658 12.2998C11.4658 11.8831 11.6117 11.529 11.9033 11.2373C12.195 10.9456 12.5492 10.7998 12.9658 10.7998C13.3825 10.7998 13.7367 10.9456 14.0283 11.2373C14.32 11.529 14.4658 11.8831 14.4658 12.2998C14.4658 12.7165 14.32 13.0706 14.0283 13.3623C13.7367 13.654 13.3825 13.7998 12.9658 13.7998Z" fill="#262626" fill-opacity="0.8"/>
</svg>
