<svg width="25" height="25" viewBox="0 0 25 25" fill="none" xmlns="http://www.w3.org/2000/svg">
<path d="M12.9658 21.1374C12.7325 21.1374 12.495 21.0957 12.2533 21.0124C12.0117 20.9291 11.7992 20.7957 11.6158 20.6124L9.89082 19.0374C8.12415 17.4207 6.52832 15.8166 5.10332 14.2249C3.67832 12.6332 2.96582 10.8791 2.96582 8.9624C2.96582 7.39574 3.49082 6.0874 4.54082 5.0374C5.59082 3.9874 6.89915 3.4624 8.46582 3.4624C9.34915 3.4624 10.1825 3.6499 10.9658 4.0249C11.7492 4.3999 12.4158 4.9124 12.9658 5.5624C13.5158 4.9124 14.1825 4.3999 14.9658 4.0249C15.7492 3.6499 16.5825 3.4624 17.4658 3.4624C19.0325 3.4624 20.3408 3.9874 21.3908 5.0374C22.4408 6.0874 22.9658 7.39574 22.9658 8.9624C22.9658 10.8791 22.2575 12.6374 20.8408 14.2374C19.4242 15.8374 17.8158 17.4457 16.0158 19.0624L14.3158 20.6124C14.1325 20.7957 13.92 20.9291 13.6783 21.0124C13.4367 21.0957 13.1992 21.1374 12.9658 21.1374Z" fill="currentColor" />
</svg>
