<svg width="25" height="25" viewBox="0 0 25 25" fill="none" xmlns="http://www.w3.org/2000/svg">
<path d="M17.9658 22.2998C17.1325 22.2998 16.4242 22.0081 15.8408 21.4248C15.2575 20.8415 14.9658 20.1331 14.9658 19.2998C14.9658 19.1998 14.9908 18.9665 15.0408 18.5998L8.01582 14.4998C7.74915 14.7498 7.44082 14.9456 7.09082 15.0873C6.74082 15.229 6.36582 15.2998 5.96582 15.2998C5.13249 15.2998 4.42415 15.0081 3.84082 14.4248C3.25749 13.8415 2.96582 13.1331 2.96582 12.2998C2.96582 11.4665 3.25749 10.7581 3.84082 10.1748C4.42415 9.59147 5.13249 9.2998 5.96582 9.2998C6.36582 9.2998 6.74082 9.37064 7.09082 9.5123C7.44082 9.65397 7.74915 9.8498 8.01582 10.0998L15.0408 5.9998C15.0075 5.88314 14.9867 5.77064 14.9783 5.6623C14.97 5.55397 14.9658 5.43314 14.9658 5.2998C14.9658 4.46647 15.2575 3.75814 15.8408 3.1748C16.4242 2.59147 17.1325 2.2998 17.9658 2.2998C18.7992 2.2998 19.5075 2.59147 20.0908 3.1748C20.6742 3.75814 20.9658 4.46647 20.9658 5.2998C20.9658 6.13314 20.6742 6.84147 20.0908 7.4248C19.5075 8.00814 18.7992 8.2998 17.9658 8.2998C17.5658 8.2998 17.1908 8.22897 16.8408 8.0873C16.4908 7.94564 16.1825 7.7498 15.9158 7.4998L8.89082 11.5998C8.92415 11.7165 8.94499 11.829 8.95332 11.9373C8.96165 12.0456 8.96582 12.1665 8.96582 12.2998C8.96582 12.4331 8.96165 12.554 8.95332 12.6623C8.94499 12.7706 8.92415 12.8831 8.89082 12.9998L15.9158 17.0998C16.1825 16.8498 16.4908 16.654 16.8408 16.5123C17.1908 16.3706 17.5658 16.2998 17.9658 16.2998C18.7992 16.2998 19.5075 16.5915 20.0908 17.1748C20.6742 17.7581 20.9658 18.4665 20.9658 19.2998C20.9658 20.1331 20.6742 20.8415 20.0908 21.4248C19.5075 22.0081 18.7992 22.2998 17.9658 22.2998ZM17.9658 20.2998C18.2492 20.2998 18.4867 20.204 18.6783 20.0123C18.87 19.8206 18.9658 19.5831 18.9658 19.2998C18.9658 19.0165 18.87 18.779 18.6783 18.5873C18.4867 18.3956 18.2492 18.2998 17.9658 18.2998C17.6825 18.2998 17.445 18.3956 17.2533 18.5873C17.0617 18.779 16.9658 19.0165 16.9658 19.2998C16.9658 19.5831 17.0617 19.8206 17.2533 20.0123C17.445 20.204 17.6825 20.2998 17.9658 20.2998ZM5.96582 13.2998C6.24915 13.2998 6.48665 13.204 6.67832 13.0123C6.86999 12.8206 6.96582 12.5831 6.96582 12.2998C6.96582 12.0165 6.86999 11.779 6.67832 11.5873C6.48665 11.3956 6.24915 11.2998 5.96582 11.2998C5.68249 11.2998 5.44499 11.3956 5.25332 11.5873C5.06165 11.779 4.96582 12.0165 4.96582 12.2998C4.96582 12.5831 5.06165 12.8206 5.25332 13.0123C5.44499 13.204 5.68249 13.2998 5.96582 13.2998ZM17.9658 6.2998C18.2492 6.2998 18.4867 6.20397 18.6783 6.0123C18.87 5.82064 18.9658 5.58314 18.9658 5.2998C18.9658 5.01647 18.87 4.77897 18.6783 4.5873C18.4867 4.39564 18.2492 4.2998 17.9658 4.2998C17.6825 4.2998 17.445 4.39564 17.2533 4.5873C17.0617 4.77897 16.9658 5.01647 16.9658 5.2998C16.9658 5.58314 17.0617 5.82064 17.2533 6.0123C17.445 6.20397 17.6825 6.2998 17.9658 6.2998Z" fill="#262626" fill-opacity="0.8"/>
</svg>
