<svg width="57" height="57" viewBox="0 0 57 57" fill="none" xmlns="http://www.w3.org/2000/svg">
<rect x="1.23096" y="0.799805" width="55" height="55" rx="27.5" fill="white"/>
<rect x="1.23096" y="0.799805" width="55" height="55" rx="27.5" stroke="#EE6768"/>
<path d="M28.9244 27.1307L24.0244 32.0057C23.841 32.189 23.6119 32.2849 23.3369 32.2932C23.0619 32.3015 22.8244 32.2057 22.6244 32.0057C22.441 31.8224 22.3494 31.589 22.3494 31.3057C22.3494 31.0224 22.441 30.789 22.6244 30.6057L28.2244 25.0057C28.4244 24.8057 28.6577 24.7057 28.9244 24.7057C29.191 24.7057 29.4244 24.8057 29.6244 25.0057L35.2244 30.6057C35.4077 30.789 35.5035 31.0182 35.5119 31.2932C35.5202 31.5682 35.4244 31.8057 35.2244 32.0057C35.041 32.189 34.8077 32.2807 34.5244 32.2807C34.241 32.2807 34.0077 32.189 33.8244 32.0057L28.9244 27.1307Z" fill="#EE6768"/>
</svg>
