<svg width="25" height="25" viewBox="0 0 25 25" fill="none" xmlns="http://www.w3.org/2000/svg">
<path d="M10.5158 15.4498L18.9908 6.9748C19.1908 6.7748 19.4241 6.6748 19.6908 6.6748C19.9575 6.6748 20.1908 6.7748 20.3908 6.9748C20.5908 7.1748 20.6908 7.4123 20.6908 7.6873C20.6908 7.9623 20.5908 8.1998 20.3908 8.3998L11.2158 17.5998C11.0158 17.7998 10.7825 17.8998 10.5158 17.8998C10.2491 17.8998 10.0158 17.7998 9.81578 17.5998L5.51578 13.2998C5.31578 13.0998 5.21995 12.8623 5.22828 12.5873C5.23662 12.3123 5.34078 12.0748 5.54078 11.8748C5.74078 11.6748 5.97828 11.5748 6.25328 11.5748C6.52828 11.5748 6.76578 11.6748 6.96578 11.8748L10.5158 15.4498Z" fill="currentColor"/>
</svg>
