<svg width="24" height="24" viewBox="0 0 24 24" fill="none" xmlns="http://www.w3.org/2000/svg">
<path d="M12 17.5235L7.85002 20.0235C7.66668 20.1402 7.47502 20.1902 7.27501 20.1735C7.07501 20.1568 6.90001 20.0902 6.75002 19.9735C6.60001 19.8568 6.48335 19.711 6.40002 19.536C6.31668 19.361 6.30002 19.1652 6.35002 18.9485L7.45002 14.2235L3.77502 11.0485C3.60835 10.8985 3.50418 10.7277 3.46252 10.536C3.42085 10.3443 3.43335 10.1568 3.50002 9.97349C3.56668 9.79015 3.66668 9.64015 3.80002 9.52349C3.93335 9.40682 4.11668 9.33182 4.35002 9.29849L9.20002 8.87349L11.075 4.42349C11.1583 4.22349 11.2875 4.07349 11.4625 3.97349C11.6375 3.87349 11.8167 3.82349 12 3.82349C12.1833 3.82349 12.3625 3.87349 12.5375 3.97349C12.7125 4.07349 12.8417 4.22349 12.925 4.42349L14.8 8.87349L19.65 9.29849C19.8833 9.33182 20.0667 9.40682 20.2 9.52349C20.3333 9.64015 20.4333 9.79015 20.5 9.97349C20.5667 10.1568 20.5792 10.3443 20.5375 10.536C20.4958 10.7277 20.3917 10.8985 20.225 11.0485L16.55 14.2235L17.65 18.9485C17.7 19.1652 17.6833 19.361 17.6 19.536C17.5167 19.711 17.4 19.8568 17.25 19.9735C17.1 20.0902 16.925 20.1568 16.725 20.1735C16.525 20.1902 16.3333 20.1402 16.15 20.0235L12 17.5235Z" fill="currentColor"/>
</svg>
