<svg width="41" height="41" viewBox="0 0 41 41" fill="none" xmlns="http://www.w3.org/2000/svg">
<rect x="0.346069" y="0.153809" width="40" height="40" rx="20" fill="#141414" fill-opacity="0.52"/>
<path d="M20.3461 28.9914C20.1127 28.9914 19.8752 28.9497 19.6336 28.8664C19.3919 28.7831 19.1794 28.6497 18.9961 28.4664L17.2711 26.8914C15.5044 25.2747 13.9086 23.6706 12.4836 22.0789C11.0586 20.4872 10.3461 18.7331 10.3461 16.8164C10.3461 15.2497 10.8711 13.9414 11.9211 12.8914C12.9711 11.8414 14.2794 11.3164 15.8461 11.3164C16.7294 11.3164 17.5627 11.5039 18.3461 11.8789C19.1294 12.2539 19.7961 12.7664 20.3461 13.4164C20.8961 12.7664 21.5627 12.2539 22.3461 11.8789C23.1294 11.5039 23.9627 11.3164 24.8461 11.3164C26.4127 11.3164 27.7211 11.8414 28.7711 12.8914C29.8211 13.9414 30.3461 15.2497 30.3461 16.8164C30.3461 18.7331 29.6377 20.4914 28.2211 22.0914C26.8044 23.6914 25.1961 25.2997 23.3961 26.9164L21.6961 28.4664C21.5127 28.6497 21.3002 28.7831 21.0586 28.8664C20.8169 28.9497 20.5794 28.9914 20.3461 28.9914ZM19.3961 15.4164C18.9127 14.7331 18.3961 14.2122 17.8461 13.8539C17.2961 13.4956 16.6294 13.3164 15.8461 13.3164C14.8461 13.3164 14.0127 13.6497 13.3461 14.3164C12.6794 14.9831 12.3461 15.8164 12.3461 16.8164C12.3461 17.6831 12.6544 18.6039 13.2711 19.5789C13.8877 20.5539 14.6252 21.4997 15.4836 22.4164C16.3419 23.3331 17.2252 24.1914 18.1336 24.9914C19.0419 25.7914 19.7794 26.4497 20.3461 26.9664C20.9127 26.4497 21.6502 25.7914 22.5586 24.9914C23.4669 24.1914 24.3502 23.3331 25.2086 22.4164C26.0669 21.4997 26.8044 20.5539 27.4211 19.5789C28.0377 18.6039 28.3461 17.6831 28.3461 16.8164C28.3461 15.8164 28.0127 14.9831 27.3461 14.3164C26.6794 13.6497 25.8461 13.3164 24.8461 13.3164C24.0627 13.3164 23.3961 13.4956 22.8461 13.8539C22.2961 14.2122 21.7794 14.7331 21.2961 15.4164C21.1794 15.5831 21.0377 15.7081 20.8711 15.7914C20.7044 15.8747 20.5294 15.9164 20.3461 15.9164C20.1627 15.9164 19.9877 15.8747 19.8211 15.7914C19.6544 15.7081 19.5127 15.5831 19.3961 15.4164Z" fill="currentColor"/>
</svg>
