<svg width="41" height="41" viewBox="0 0 41 41" fill="none" xmlns="http://www.w3.org/2000/svg">
<rect x="0.346069" y="0.153809" width="40" height="40" rx="20" fill="#141414" fill-opacity="0.52"/>
<path d="M25.3461 30.1538C24.5127 30.1538 23.8044 29.8621 23.2211 29.2788C22.6377 28.6955 22.3461 27.9871 22.3461 27.1538C22.3461 27.0538 22.3711 26.8205 22.4211 26.4538L15.3961 22.3538C15.1294 22.6038 14.8211 22.7996 14.4711 22.9413C14.1211 23.083 13.7461 23.1538 13.3461 23.1538C12.5127 23.1538 11.8044 22.8621 11.2211 22.2788C10.6377 21.6955 10.3461 20.9871 10.3461 20.1538C10.3461 19.3205 10.6377 18.6121 11.2211 18.0288C11.8044 17.4455 12.5127 17.1538 13.3461 17.1538C13.7461 17.1538 14.1211 17.2246 14.4711 17.3663C14.8211 17.508 15.1294 17.7038 15.3961 17.9538L22.4211 13.8538C22.3877 13.7371 22.3669 13.6246 22.3586 13.5163C22.3502 13.408 22.3461 13.2871 22.3461 13.1538C22.3461 12.3205 22.6377 11.6121 23.2211 11.0288C23.8044 10.4455 24.5127 10.1538 25.3461 10.1538C26.1794 10.1538 26.8877 10.4455 27.4711 11.0288C28.0544 11.6121 28.3461 12.3205 28.3461 13.1538C28.3461 13.9871 28.0544 14.6955 27.4711 15.2788C26.8877 15.8621 26.1794 16.1538 25.3461 16.1538C24.9461 16.1538 24.5711 16.083 24.2211 15.9413C23.8711 15.7996 23.5627 15.6038 23.2961 15.3538L16.2711 19.4538C16.3044 19.5705 16.3252 19.683 16.3336 19.7913C16.3419 19.8996 16.3461 20.0205 16.3461 20.1538C16.3461 20.2871 16.3419 20.408 16.3336 20.5163C16.3252 20.6246 16.3044 20.7371 16.2711 20.8538L23.2961 24.9538C23.5627 24.7038 23.8711 24.508 24.2211 24.3663C24.5711 24.2246 24.9461 24.1538 25.3461 24.1538C26.1794 24.1538 26.8877 24.4455 27.4711 25.0288C28.0544 25.6121 28.3461 26.3205 28.3461 27.1538C28.3461 27.9871 28.0544 28.6955 27.4711 29.2788C26.8877 29.8621 26.1794 30.1538 25.3461 30.1538ZM25.3461 28.1538C25.6294 28.1538 25.8669 28.058 26.0586 27.8663C26.2502 27.6746 26.3461 27.4371 26.3461 27.1538C26.3461 26.8705 26.2502 26.633 26.0586 26.4413C25.8669 26.2496 25.6294 26.1538 25.3461 26.1538C25.0627 26.1538 24.8252 26.2496 24.6336 26.4413C24.4419 26.633 24.3461 26.8705 24.3461 27.1538C24.3461 27.4371 24.4419 27.6746 24.6336 27.8663C24.8252 28.058 25.0627 28.1538 25.3461 28.1538ZM13.3461 21.1538C13.6294 21.1538 13.8669 21.058 14.0586 20.8663C14.2502 20.6746 14.3461 20.4371 14.3461 20.1538C14.3461 19.8705 14.2502 19.633 14.0586 19.4413C13.8669 19.2496 13.6294 19.1538 13.3461 19.1538C13.0627 19.1538 12.8252 19.2496 12.6336 19.4413C12.4419 19.633 12.3461 19.8705 12.3461 20.1538C12.3461 20.4371 12.4419 20.6746 12.6336 20.8663C12.8252 21.058 13.0627 21.1538 13.3461 21.1538ZM25.3461 14.1538C25.6294 14.1538 25.8669 14.058 26.0586 13.8663C26.2502 13.6746 26.3461 13.4371 26.3461 13.1538C26.3461 12.8705 26.2502 12.633 26.0586 12.4413C25.8669 12.2496 25.6294 12.1538 25.3461 12.1538C25.0627 12.1538 24.8252 12.2496 24.6336 12.4413C24.4419 12.633 24.3461 12.8705 24.3461 13.1538C24.3461 13.4371 24.4419 13.6746 24.6336 13.8663C24.8252 14.058 25.0627 14.1538 25.3461 14.1538Z" fill="white"/>
</svg>
