<svg width="40" height="40" viewBox="0 0 40 40" fill="none" xmlns="http://www.w3.org/2000/svg">
<rect y="0.738281" width="40" height="40" rx="20" fill="#141414" fill-opacity="0.52"/>
<path d="M20 29.5754C19.7667 29.5754 19.5292 29.5337 19.2875 29.4504C19.0458 29.3671 18.8333 29.2337 18.65 29.0504L16.925 27.4754C15.1583 25.8587 13.5625 24.2546 12.1375 22.6629C10.7125 21.0712 10 19.3171 10 17.4004C10 15.8337 10.525 14.5254 11.575 13.4754C12.625 12.4254 13.9333 11.9004 15.5 11.9004C16.3833 11.9004 17.2167 12.0879 18 12.4629C18.7833 12.8379 19.45 13.3504 20 14.0004C20.55 13.3504 21.2167 12.8379 22 12.4629C22.7833 12.0879 23.6167 11.9004 24.5 11.9004C26.0667 11.9004 27.375 12.4254 28.425 13.4754C29.475 14.5254 30 15.8337 30 17.4004C30 19.3171 29.2917 21.0754 27.875 22.6754C26.4583 24.2754 24.85 25.8837 23.05 27.5004L21.35 29.0504C21.1667 29.2337 20.9542 29.3671 20.7125 29.4504C20.4708 29.5337 20.2333 29.5754 20 29.5754Z" fill="#EE6768"/>
</svg>
