<svg width="24" height="24" viewBox="0 0 24 24" fill="none" xmlns="http://www.w3.org/2000/svg">
<g clip-path="url(#clip0_476_775)">
<path d="M20.6602 16.9999C19.9686 18.1979 19.0912 19.1925 18.0282 19.9837C16.9652 20.7748 15.819 21.3351 14.5896 21.6645C13.3602 21.994 12.0874 22.0818 10.7712 21.9282C9.45506 21.7745 8.19798 21.3518 6.99998 20.6602C5.80197 19.9685 4.80739 19.0912 4.01623 18.0282C3.22506 16.9652 2.66477 15.819 2.33535 14.5895C2.00592 13.3601 1.91805 12.0873 2.07172 10.7712C2.22539 9.45499 2.64806 8.1979 3.33972 6.9999C4.03139 5.8019 4.90872 4.80732 5.97172 4.01615C7.03471 3.22499 8.18092 2.66469 9.41035 2.33527C10.6398 2.00585 11.9126 1.91797 13.2287 2.07164C14.5449 2.22531 15.802 2.64798 17 3.33965C18.198 4.03132 19.1926 4.90865 19.9837 5.97164C20.7749 7.03464 21.3352 8.18085 21.6646 9.41027C21.994 10.6397 22.0819 11.9125 21.9282 13.2287C21.7746 14.5448 21.3519 15.8019 20.6602 16.9999ZM16.7631 14.7499C16.4886 13.7254 16.1508 12.7605 15.7496 11.8554C15.4078 11.0807 14.9875 10.3087 14.4885 9.53957C13.9896 8.77039 13.3938 8.1858 12.7009 7.7858C11.7483 7.2358 10.737 7.10416 9.66692 7.39088C8.59686 7.6776 7.78684 8.29727 7.23684 9.2499C6.68684 10.2025 6.5552 11.2139 6.84192 12.2839C7.12864 13.354 7.74831 14.164 8.70094 14.714C9.39376 15.114 10.198 15.3377 11.1135 15.3852C12.0291 15.4327 12.9078 15.4108 13.7496 15.3195C14.7341 15.2143 15.7386 15.0244 16.7631 14.7499ZM12 11.9999C11.7916 12.3607 11.4883 12.5945 11.0898 12.7013C10.6914 12.8081 10.3118 12.7573 9.95094 12.5489C9.59009 12.3406 9.35629 12.0372 9.24954 11.6388C9.14278 11.2404 9.19357 10.8607 9.4019 10.4999C9.61023 10.1391 9.91361 9.90526 10.312 9.7985C10.7105 9.69174 11.0901 9.74253 11.4509 9.95086C11.8118 10.1592 12.0456 10.4626 12.1523 10.861C12.2591 11.2594 12.2083 11.6391 12 11.9999Z" fill="#1F1F1F"/>
</g>
<defs>
<clipPath id="clip0_476_775">
<rect width="24" height="24" fill="white"/>
</clipPath>
</defs>
</svg>
